<svg width="61" height="61" viewBox="0 0 61 61" fill="none" xmlns="http://www.w3.org/2000/svg">
<path d="M32.1118 52.8155C32.1118 52.8155 32.2815 39.9386 22.302 28.618C12.0084 16.9326 2.05585 17.7896 1.22147 17.4497C0.387098 17.1097 3.50323 47.035 32.1118 52.8155Z" fill="#61C080"/>
<path d="M28.8882 52.8155C28.8882 52.8155 28.7185 39.9386 38.698 28.618C48.9916 16.9326 58.9442 17.7896 59.7785 17.4497C60.6129 17.1097 57.4968 47.035 28.8882 52.8155Z" fill="#61C080"/>
<path d="M22.7882 43.6655C22.7882 43.6655 22.6185 30.7886 32.598 19.468C42.8916 7.78255 52.8441 8.63959 53.6785 8.29966C54.5129 7.95973 51.3968 37.885 22.7882 43.6655Z" fill="url(#paint0_linear_56_28)"/>
<path d="M38.2118 43.6655C38.2118 43.6655 38.3815 30.7886 28.402 19.468C18.1084 7.78256 8.15588 8.63959 7.32151 8.29966C6.48713 7.95973 9.60327 37.885 38.2118 43.6655Z" fill="url(#paint1_linear_56_28)"/>
<circle cx="30.5" cy="39.65" r="15.25" fill="url(#paint2_linear_56_28)"/>
<path d="M30.5 18.3V36.6" stroke="#FF7C5D" stroke-width="3.05" stroke-linecap="round"/>
<path d="M43.0588 43.0588L40.6667 34.6863" stroke="#FF7C5D" stroke-width="3.05" stroke-linecap="round"/>
<path d="M40.0142 30.664L36.8428 29.0844L30.4999 25.925" stroke="#FF7C5D" stroke-width="3.05" stroke-linecap="round"/>
<circle cx="30.5" cy="9.15002" r="6.1" fill="url(#paint3_linear_56_28)"/>
<path d="M40.6667 34.6863L31.098 34.6914" stroke="#FF7C5D" stroke-width="3.05" stroke-linecap="round"/>
<circle cx="28.975" cy="41.175" r="7.625" fill="#3FC0EB"/>
<defs>
<linearGradient id="paint0_linear_56_28" x1="45.5317" y1="4.43245" x2="26.2044" y2="45.2819" gradientUnits="userSpaceOnUse">
<stop stop-color="#61C080"/>
<stop offset="1" stop-color="#3FC0EB"/>
</linearGradient>
<linearGradient id="paint1_linear_56_28" x1="15.4683" y1="4.43245" x2="34.7956" y2="45.2819" gradientUnits="userSpaceOnUse">
<stop stop-color="#61C080"/>
<stop offset="1" stop-color="#3FC0EB"/>
</linearGradient>
<linearGradient id="paint2_linear_56_28" x1="30.5" y1="54.9" x2="30.5" y2="24.4" gradientUnits="userSpaceOnUse">
<stop stop-color="#FF7C5D"/>
<stop offset="1" stop-color="#3FC0EB"/>
</linearGradient>
<linearGradient id="paint3_linear_56_28" x1="30.5" y1="3.05002" x2="30.5" y2="15.25" gradientUnits="userSpaceOnUse">
<stop stop-color="#61C080"/>
<stop offset="1" stop-color="#3FC0EB"/>
</linearGradient>
</defs>
</svg>
