<svg width="69" height="69" viewBox="0 0 69 69" fill="none" xmlns="http://www.w3.org/2000/svg">
<path d="M35.8581 58.9773C35.8581 58.9773 36.0476 44.5981 24.9039 31.9568C13.4093 18.908 2.29569 19.865 1.36398 19.4854C0.432259 19.1058 3.91194 52.5223 35.8581 58.9773Z" fill="white"/>
<path d="M32.2585 58.9773C32.2585 58.9773 32.069 44.5981 43.2127 31.9568C54.7073 18.908 65.8209 19.865 66.7527 19.4854C67.6844 19.1058 64.2047 52.5223 32.2585 58.9773Z" fill="white"/>
<path d="M25.4469 48.7598C25.4469 48.7598 25.2574 34.3806 36.4012 21.7393C47.8957 8.69052 59.0094 9.64754 59.9411 9.26795C60.8728 8.88836 57.3931 42.3049 25.4469 48.7598Z" fill="white"/>
<path d="M42.6699 48.7598C42.6699 48.7598 42.8593 34.3806 31.7156 21.7393C20.221 8.69052 9.1074 9.64754 8.17568 9.26795C7.24397 8.88836 10.7237 42.3049 42.6699 48.7598Z" fill="white"/>
<circle cx="34.0583" cy="44.2758" r="17.0292" fill="white"/>
<path d="M34.0583 20.435V40.87" stroke="white" stroke-width="3.40583" stroke-linecap="round"/>
<path d="M48.0823 48.0823L45.4111 38.733" stroke="white" stroke-width="3.40583" stroke-linecap="round"/>
<path d="M44.6826 34.2415L41.1412 32.4775L34.0583 28.9496" stroke="white" stroke-width="3.40583" stroke-linecap="round"/>
<circle cx="34.0584" cy="10.2175" r="6.81166" fill="white"/>
<path d="M45.4111 38.733L34.7262 38.7387" stroke="white" stroke-width="3.40583" stroke-linecap="round"/>
<circle cx="32.3553" cy="45.9788" r="8.51458" fill="white"/>
</svg>
